<svg width="58" height="45" viewBox="0 0 58 45" fill="none" xmlns="http://www.w3.org/2000/svg">
<g filter="url(#filter0_d_615_473)">
<path d="M30.278 22.0223L27.0587 24.8318L28.0231 29.0147C28.0741 29.2334 28.0595 29.4623 27.9812 29.6727C27.9029 29.8831 27.7642 30.0658 27.5827 30.1979C27.4011 30.33 27.1846 30.4056 26.9602 30.4153C26.7359 30.425 26.5137 30.3684 26.3214 30.2525L22.6731 28.0397L19.0327 30.2525C18.8404 30.3684 18.6181 30.425 18.3938 30.4153C18.1695 30.4056 17.953 30.33 17.7714 30.1979C17.5898 30.0658 17.4512 29.8831 17.3728 29.6727C17.2945 29.4623 17.2799 29.2334 17.331 29.0147L18.2939 24.8361L15.0739 22.0223C14.9036 21.8754 14.7805 21.6815 14.7199 21.4649C14.6594 21.2483 14.6641 21.0187 14.7335 20.8048C14.803 20.5908 14.9341 20.4022 15.1103 20.2625C15.2865 20.1228 15.5001 20.0382 15.7242 20.0193L19.9685 19.6517L21.6252 15.7001C21.7117 15.4928 21.8577 15.3156 22.0446 15.1911C22.2316 15.0665 22.4513 15 22.676 15C22.9006 15 23.1203 15.0665 23.3073 15.1911C23.4942 15.3156 23.6402 15.4928 23.7267 15.7001L25.3884 19.6517L29.6313 20.0193C29.8554 20.0382 30.0689 20.1228 30.2452 20.2625C30.4214 20.4022 30.5525 20.5908 30.6219 20.8048C30.6914 21.0187 30.6961 21.2483 30.6356 21.4649C30.575 21.6815 30.4519 21.8754 30.2816 22.0223H30.278Z" fill="#FEEA35"/>
</g>
<path d="M35.4001 24.4484L39.2401 17.1684H41.6401L37.7041 24.4484H35.4001ZM35.4001 25.7284V24.4484L36.2001 23.8244H44.2641V25.7284H35.4001ZM40.7121 28.4164V21.2484H42.8561V28.4164H40.7121ZM46.54 28.5764C46.156 28.5764 45.8413 28.4484 45.596 28.1924C45.3507 27.9364 45.228 27.6217 45.228 27.2484C45.228 26.875 45.3507 26.5604 45.596 26.3044C45.8413 26.0484 46.156 25.9204 46.54 25.9204C46.9133 25.9204 47.2227 26.0484 47.468 26.3044C47.7133 26.5604 47.836 26.875 47.836 27.2484C47.836 27.6217 47.7133 27.9364 47.468 28.1924C47.2227 28.4484 46.9133 28.5764 46.54 28.5764ZM50.1244 28.4164L53.5484 23.6484L54.3324 23.4084C54.2044 23.6537 54.055 23.8724 53.8844 24.0644C53.7244 24.2457 53.5164 24.3844 53.2604 24.4804C53.0044 24.5764 52.6684 24.6244 52.2524 24.6244C51.591 24.6244 50.983 24.4697 50.4284 24.1604C49.8844 23.8404 49.447 23.403 49.1164 22.8484C48.7857 22.2937 48.6204 21.659 48.6204 20.9444C48.6204 20.219 48.8017 19.5577 49.1644 18.9604C49.527 18.3524 50.0177 17.8724 50.6364 17.5204C51.255 17.1684 51.943 16.9924 52.7004 16.9924C53.4684 16.9924 54.1564 17.1684 54.7644 17.5204C55.383 17.8724 55.8684 18.3417 56.2204 18.9284C56.583 19.515 56.7644 20.171 56.7644 20.8964C56.7644 21.8884 56.4177 22.891 55.7244 23.9044L52.6044 28.4164H50.1244ZM52.7004 22.9604C53.0737 22.9604 53.4044 22.875 53.6924 22.7044C53.9804 22.5337 54.2044 22.299 54.3644 22.0004C54.535 21.691 54.6204 21.3497 54.6204 20.9764C54.6204 20.5817 54.535 20.235 54.3644 19.9364C54.2044 19.6377 53.9804 19.403 53.6924 19.2324C53.4044 19.051 53.0737 18.9604 52.7004 18.9604C52.327 18.9604 51.991 19.051 51.6924 19.2324C51.4044 19.403 51.175 19.6377 51.0044 19.9364C50.8444 20.235 50.7644 20.5817 50.7644 20.9764C50.7644 21.3604 50.8444 21.7017 51.0044 22.0004C51.175 22.299 51.4097 22.5337 51.7084 22.7044C52.007 22.875 52.3377 22.9604 52.7004 22.9604Z" fill="#FEEA35"/>
<defs>
<filter id="filter0_d_615_473" x="0.269955" y="0.59222" width="44.8156" height="44.2319" filterUnits="userSpaceOnUse" color-interpolation-filters="sRGB">
<feFlood flood-opacity="0" result="BackgroundImageFix"/>
<feColorMatrix in="SourceAlpha" type="matrix" values="0 0 0 0 0 0 0 0 0 0 0 0 0 0 0 0 0 0 127 0" result="hardAlpha"/>
<feOffset/>
<feGaussianBlur stdDeviation="7.20389"/>
<feComposite in2="hardAlpha" operator="out"/>
<feColorMatrix type="matrix" values="0 0 0 0 0.996078 0 0 0 0 0.917647 0 0 0 0 0.207843 0 0 0 0.25 0"/>
<feBlend mode="normal" in2="BackgroundImageFix" result="effect1_dropShadow_615_473"/>
<feBlend mode="normal" in="SourceGraphic" in2="effect1_dropShadow_615_473" result="shape"/>
</filter>
</defs>
</svg>
